<?xml version="1.0" encoding="utf-8"?>
<!-- Generator: Adobe Illustrator 19.0.0, SVG Export Plug-In . SVG Version: 6.00 Build 0)  -->
<svg version="1.1" id="Layer_1" xmlns="http://www.w3.org/2000/svg" xmlns:xlink="http://www.w3.org/1999/xlink" x="0px" y="0px"
	 viewBox="-738.2 149.1 435.4 102.8" style="enable-background:new -738.2 149.1 435.4 102.8;" xml:space="preserve">
<style type="text/css">
	.st0{fill:#050505;}
</style>
<path class="st0" d="M-612.2,149.1h-18.4v99.6h18.4V149.1z M-716.3,228.1l25.4-55l14,30.2L-716.3,228.1L-716.3,228.1z M-637,248.8
	l-17.9-38.7l17.4-11l-8.9-15l-15.9,10l-17.4-37.6c-1.1-2.3-2.7-4.2-4.7-5.5c-2-1.3-4.4-2-6.7-1.9c-2.4,0.1-4.7,0.9-6.6,2.3
	c-1.9,1.4-3.4,3.3-4.3,5.5l-34.9,75.5l-0.1,0.2c-2.3,5.7-0.8,12.2,3.8,16.2c4.5,3.9,10.8,4.2,15.6,0.9l48.2-30.3l13.7,29.5
	L-637,248.8L-637,248.8z M-582.7,195.7h27.3v0c14.1,0,18.8-7.7,18.8-16.4c0-8.7-4.7-15.9-18.7-15.9h-27.4V195.7z M-551.8,149.1
	c26.2,0,34.6,14.6,34.6,30c0,11.6-5.8,23.7-21.5,27.9l24.7,41.7h-20.8l-23-39.1h-24.9v39.1H-601v-99.6H-551.8z M-511.7,164.5h35
	v84.2h18.4v-84.2h35v-15.4h-88.4V164.5z M-387.8,149.1H-415h0v99.6h16.6v-72.1c0-4.5-0.3-8.6-0.7-12.1h0.5c0.5,2.7,1.9,7.9,3.2,11.6
	l27.3,72.5h17.3l27.3-72.5c1.5-3.8,3.1-9.4,3.5-11.6h0.5c-0.4,3.6-0.7,8-0.7,12.1v72.1h17.2v-99.6h-27.4l-25.8,69.5
	c-1.5,4.2-2.3,6.7-2.8,10.1h-0.3c-0.5-3-1.2-5.2-2.3-8.7c-0.1-0.4-0.3-0.9-0.4-1.4L-387.8,149.1z"/>
</svg>
